<mxfile host="drawio-plugin" agent="Mozilla/5.0 (Windows NT 10.0; Win64; x64) AppleWebKit/537.36 (KHTML, like Gecko) Chrome/122.0.0.0 Safari/537.36" modified="2024-10-10T14:43:14.373Z" etag="7vT4_dhDnp5ARrZziGVT" version="22.1.22" type="embed">
  <diagram name="Page-1" id="YfL7ykTpK_zmZ8jKPq0v">
    <mxGraphModel dx="1503" dy="2583" grid="1" gridSize="10" guides="1" tooltips="1" connect="1" arrows="1" fold="1" page="1" pageScale="1" pageWidth="850" pageHeight="1100" math="0" shadow="0">
      <root>
        <mxCell id="0" />
        <mxCell id="1" parent="0" />
        <mxCell id="11" style="edgeStyle=orthogonalEdgeStyle;rounded=0;orthogonalLoop=1;jettySize=auto;html=1;exitX=0;exitY=0.25;exitDx=0;exitDy=0;" edge="1" parent="1" source="rGXJMdR33EM9oFi3KllI-1" target="pl-9-NFehJo8dU9QtRn4-1">
          <mxGeometry relative="1" as="geometry" />
        </mxCell>
        <mxCell id="rGXJMdR33EM9oFi3KllI-1" value="Player" style="swimlane;fontStyle=1;align=center;verticalAlign=top;childLayout=stackLayout;horizontal=1;startSize=26;horizontalStack=0;resizeParent=1;resizeParentMax=0;resizeLast=0;collapsible=1;marginBottom=0;whiteSpace=wrap;html=1;" parent="1" vertex="1">
          <mxGeometry x="180" y="-1320" width="280" height="250" as="geometry" />
        </mxCell>
        <mxCell id="rGXJMdR33EM9oFi3KllI-2" value="+Name: string&lt;br&gt;+AvailablePokemon(List&amp;lt;Pokemons&amp;gt;)&lt;div&gt;+ActivePokemon: Pokemon&lt;span style=&quot;background-color: initial;&quot;&gt;&amp;nbsp;&lt;/span&gt;&lt;/div&gt;&lt;div&gt;+ActiveMove: Move&lt;/div&gt;" style="text;strokeColor=none;fillColor=none;align=left;verticalAlign=top;spacingLeft=4;spacingRight=4;overflow=hidden;rotatable=0;points=[[0,0.5],[1,0.5]];portConstraint=eastwest;whiteSpace=wrap;html=1;" parent="rGXJMdR33EM9oFi3KllI-1" vertex="1">
          <mxGeometry y="26" width="280" height="64" as="geometry" />
        </mxCell>
        <mxCell id="rGXJMdR33EM9oFi3KllI-3" value="" style="line;strokeWidth=1;fillColor=none;align=left;verticalAlign=middle;spacingTop=-1;spacingLeft=3;spacingRight=3;rotatable=0;labelPosition=right;points=[];portConstraint=eastwest;strokeColor=inherit;" parent="rGXJMdR33EM9oFi3KllI-1" vertex="1">
          <mxGeometry y="90" width="280" height="70" as="geometry" />
        </mxCell>
        <mxCell id="23" value="+ GetIndexOfPokemon(string): int&lt;br&gt;+ ActivatePokemon(int )&lt;br&gt;+&amp;nbsp;GetIndexOfMoveInActivePokemon(string): int&lt;br&gt;+&amp;nbsp;ActivateMoveInActivePokemon(int)&lt;br&gt;+&amp;nbsp;ActivateSpecialMove(string)" style="text;html=1;align=left;verticalAlign=middle;resizable=0;points=[];autosize=1;strokeColor=none;fillColor=none;" vertex="1" parent="rGXJMdR33EM9oFi3KllI-1">
          <mxGeometry y="160" width="280" height="90" as="geometry" />
        </mxCell>
        <mxCell id="18" style="edgeStyle=orthogonalEdgeStyle;rounded=0;orthogonalLoop=1;jettySize=auto;html=1;exitX=1;exitY=0.25;exitDx=0;exitDy=0;entryX=0;entryY=0.75;entryDx=0;entryDy=0;" edge="1" parent="1" source="pl-9-NFehJo8dU9QtRn4-1" target="rGXJMdR33EM9oFi3KllI-33">
          <mxGeometry relative="1" as="geometry" />
        </mxCell>
        <mxCell id="pl-9-NFehJo8dU9QtRn4-1" value="&lt;font style=&quot;vertical-align: inherit;&quot;&gt;&lt;font style=&quot;vertical-align: inherit;&quot;&gt;Pokemon&lt;/font&gt;&lt;/font&gt;" style="swimlane;fontStyle=1;align=center;verticalAlign=top;childLayout=stackLayout;horizontal=1;startSize=26;horizontalStack=0;resizeParent=1;resizeParentMax=0;resizeLast=0;collapsible=1;marginBottom=0;whiteSpace=wrap;html=1;" parent="1" vertex="1">
          <mxGeometry x="-190" y="-1090" width="220" height="146" as="geometry" />
        </mxCell>
        <mxCell id="pl-9-NFehJo8dU9QtRn4-2" value="+Name: string&lt;br&gt;+HealthPoints: int&lt;div&gt;+SpecialMove: Move&lt;/div&gt;&lt;div&gt;+ Moves: List&amp;lt;Move&amp;gt;&lt;/div&gt;&lt;div&gt;&lt;br&gt;&lt;/div&gt;" style="text;strokeColor=none;fillColor=none;align=left;verticalAlign=top;spacingLeft=4;spacingRight=4;overflow=hidden;rotatable=0;points=[[0,0.5],[1,0.5]];portConstraint=eastwest;whiteSpace=wrap;html=1;" parent="pl-9-NFehJo8dU9QtRn4-1" vertex="1">
          <mxGeometry y="26" width="220" height="64" as="geometry" />
        </mxCell>
        <mxCell id="pl-9-NFehJo8dU9QtRn4-3" value="" style="line;strokeWidth=1;fillColor=none;align=left;verticalAlign=middle;spacingTop=-1;spacingLeft=3;spacingRight=3;rotatable=0;labelPosition=right;points=[];portConstraint=eastwest;strokeColor=inherit;" parent="pl-9-NFehJo8dU9QtRn4-1" vertex="1">
          <mxGeometry y="90" width="220" height="30" as="geometry" />
        </mxCell>
        <mxCell id="pl-9-NFehJo8dU9QtRn4-4" value="+&amp;nbsp;" style="text;strokeColor=none;fillColor=none;align=left;verticalAlign=top;spacingLeft=4;spacingRight=4;overflow=hidden;rotatable=0;points=[[0,0.5],[1,0.5]];portConstraint=eastwest;whiteSpace=wrap;html=1;" parent="pl-9-NFehJo8dU9QtRn4-1" vertex="1">
          <mxGeometry y="120" width="220" height="26" as="geometry" />
        </mxCell>
        <mxCell id="10" style="edgeStyle=orthogonalEdgeStyle;rounded=0;orthogonalLoop=1;jettySize=auto;html=1;exitX=0;exitY=0.25;exitDx=0;exitDy=0;entryX=1;entryY=0.5;entryDx=0;entryDy=0;" edge="1" parent="1" source="pl-9-NFehJo8dU9QtRn4-5" target="rGXJMdR33EM9oFi3KllI-2">
          <mxGeometry relative="1" as="geometry" />
        </mxCell>
        <mxCell id="pl-9-NFehJo8dU9QtRn4-5" value="&lt;font style=&quot;vertical-align: inherit;&quot;&gt;&lt;font style=&quot;vertical-align: inherit;&quot;&gt;Battle&lt;/font&gt;&lt;/font&gt;&lt;div&gt;&lt;font style=&quot;vertical-align: inherit;&quot;&gt;&lt;font style=&quot;vertical-align: inherit;&quot;&gt;&lt;br&gt;&lt;/font&gt;&lt;/font&gt;&lt;/div&gt;" style="swimlane;fontStyle=1;align=center;verticalAlign=top;childLayout=stackLayout;horizontal=1;startSize=26;horizontalStack=0;resizeParent=1;resizeParentMax=0;resizeLast=0;collapsible=1;marginBottom=0;whiteSpace=wrap;html=1;" parent="1" vertex="1">
          <mxGeometry x="460" y="-640" width="160" height="86" as="geometry" />
        </mxCell>
        <mxCell id="pl-9-NFehJo8dU9QtRn4-6" value="+ field: type" style="text;strokeColor=none;fillColor=none;align=left;verticalAlign=top;spacingLeft=4;spacingRight=4;overflow=hidden;rotatable=0;points=[[0,0.5],[1,0.5]];portConstraint=eastwest;whiteSpace=wrap;html=1;" parent="pl-9-NFehJo8dU9QtRn4-5" vertex="1">
          <mxGeometry y="26" width="160" height="26" as="geometry" />
        </mxCell>
        <mxCell id="pl-9-NFehJo8dU9QtRn4-7" value="" style="line;strokeWidth=1;fillColor=none;align=left;verticalAlign=middle;spacingTop=-1;spacingLeft=3;spacingRight=3;rotatable=0;labelPosition=right;points=[];portConstraint=eastwest;strokeColor=inherit;" parent="pl-9-NFehJo8dU9QtRn4-5" vertex="1">
          <mxGeometry y="52" width="160" height="8" as="geometry" />
        </mxCell>
        <mxCell id="pl-9-NFehJo8dU9QtRn4-8" value="+ method(type): type" style="text;strokeColor=none;fillColor=none;align=left;verticalAlign=top;spacingLeft=4;spacingRight=4;overflow=hidden;rotatable=0;points=[[0,0.5],[1,0.5]];portConstraint=eastwest;whiteSpace=wrap;html=1;" parent="pl-9-NFehJo8dU9QtRn4-5" vertex="1">
          <mxGeometry y="60" width="160" height="26" as="geometry" />
        </mxCell>
        <mxCell id="12" style="edgeStyle=orthogonalEdgeStyle;rounded=0;orthogonalLoop=1;jettySize=auto;html=1;exitX=0.25;exitY=0;exitDx=0;exitDy=0;entryX=0.75;entryY=0;entryDx=0;entryDy=0;" edge="1" parent="1" source="pl-9-NFehJo8dU9QtRn4-9" target="rGXJMdR33EM9oFi3KllI-44">
          <mxGeometry relative="1" as="geometry" />
        </mxCell>
        <mxCell id="pl-9-NFehJo8dU9QtRn4-9" value="&lt;font style=&quot;vertical-align: inherit;&quot;&gt;&lt;font style=&quot;vertical-align: inherit;&quot;&gt;PokemonCatalog&lt;/font&gt;&lt;/font&gt;" style="swimlane;fontStyle=1;align=center;verticalAlign=top;childLayout=stackLayout;horizontal=1;startSize=26;horizontalStack=0;resizeParent=1;resizeParentMax=0;resizeLast=0;collapsible=1;marginBottom=0;whiteSpace=wrap;html=1;" parent="1" vertex="1">
          <mxGeometry x="70" y="-800" width="160" height="86" as="geometry" />
        </mxCell>
        <mxCell id="pl-9-NFehJo8dU9QtRn4-10" value="+ field: type" style="text;strokeColor=none;fillColor=none;align=left;verticalAlign=top;spacingLeft=4;spacingRight=4;overflow=hidden;rotatable=0;points=[[0,0.5],[1,0.5]];portConstraint=eastwest;whiteSpace=wrap;html=1;" parent="pl-9-NFehJo8dU9QtRn4-9" vertex="1">
          <mxGeometry y="26" width="160" height="26" as="geometry" />
        </mxCell>
        <mxCell id="pl-9-NFehJo8dU9QtRn4-11" value="" style="line;strokeWidth=1;fillColor=none;align=left;verticalAlign=middle;spacingTop=-1;spacingLeft=3;spacingRight=3;rotatable=0;labelPosition=right;points=[];portConstraint=eastwest;strokeColor=inherit;" parent="pl-9-NFehJo8dU9QtRn4-9" vertex="1">
          <mxGeometry y="52" width="160" height="8" as="geometry" />
        </mxCell>
        <mxCell id="pl-9-NFehJo8dU9QtRn4-12" value="+ method(type): type" style="text;strokeColor=none;fillColor=none;align=left;verticalAlign=top;spacingLeft=4;spacingRight=4;overflow=hidden;rotatable=0;points=[[0,0.5],[1,0.5]];portConstraint=eastwest;whiteSpace=wrap;html=1;" parent="pl-9-NFehJo8dU9QtRn4-9" vertex="1">
          <mxGeometry y="60" width="160" height="26" as="geometry" />
        </mxCell>
        <mxCell id="rGXJMdR33EM9oFi3KllI-9" value="&lt;div&gt;&lt;font style=&quot;vertical-align: inherit;&quot;&gt;&lt;font style=&quot;vertical-align: inherit;&quot;&gt;UserInterface&lt;/font&gt;&lt;/font&gt;&lt;/div&gt;" style="swimlane;fontStyle=1;align=center;verticalAlign=top;childLayout=stackLayout;horizontal=1;startSize=26;horizontalStack=0;resizeParent=1;resizeParentMax=0;resizeLast=0;collapsible=1;marginBottom=0;whiteSpace=wrap;html=1;" parent="1" vertex="1">
          <mxGeometry x="-700" y="-1200" width="160" height="86" as="geometry" />
        </mxCell>
        <mxCell id="rGXJMdR33EM9oFi3KllI-10" value="+&lt;br&gt;+" style="text;strokeColor=none;fillColor=none;align=left;verticalAlign=top;spacingLeft=4;spacingRight=4;overflow=hidden;rotatable=0;points=[[0,0.5],[1,0.5]];portConstraint=eastwest;whiteSpace=wrap;html=1;" parent="rGXJMdR33EM9oFi3KllI-9" vertex="1">
          <mxGeometry y="26" width="160" height="26" as="geometry" />
        </mxCell>
        <mxCell id="rGXJMdR33EM9oFi3KllI-11" value="" style="line;strokeWidth=1;fillColor=none;align=left;verticalAlign=middle;spacingTop=-1;spacingLeft=3;spacingRight=3;rotatable=0;labelPosition=right;points=[];portConstraint=eastwest;strokeColor=inherit;" parent="rGXJMdR33EM9oFi3KllI-9" vertex="1">
          <mxGeometry y="52" width="160" height="8" as="geometry" />
        </mxCell>
        <mxCell id="rGXJMdR33EM9oFi3KllI-12" value="+ method(type): type" style="text;strokeColor=none;fillColor=none;align=left;verticalAlign=top;spacingLeft=4;spacingRight=4;overflow=hidden;rotatable=0;points=[[0,0.5],[1,0.5]];portConstraint=eastwest;whiteSpace=wrap;html=1;" parent="rGXJMdR33EM9oFi3KllI-9" vertex="1">
          <mxGeometry y="60" width="160" height="26" as="geometry" />
        </mxCell>
        <mxCell id="rGXJMdR33EM9oFi3KllI-14" value="&lt;div&gt;&lt;font style=&quot;vertical-align: inherit;&quot;&gt;&lt;font style=&quot;vertical-align: inherit;&quot;&gt;Move&lt;/font&gt;&lt;/font&gt;&lt;/div&gt;" style="swimlane;fontStyle=1;align=center;verticalAlign=top;childLayout=stackLayout;horizontal=1;startSize=26;horizontalStack=0;resizeParent=1;resizeParentMax=0;resizeLast=0;collapsible=1;marginBottom=0;whiteSpace=wrap;html=1;" parent="1" vertex="1">
          <mxGeometry x="420" y="-820" width="160" height="86" as="geometry" />
        </mxCell>
        <mxCell id="rGXJMdR33EM9oFi3KllI-15" value="+ field: type" style="text;strokeColor=none;fillColor=none;align=left;verticalAlign=top;spacingLeft=4;spacingRight=4;overflow=hidden;rotatable=0;points=[[0,0.5],[1,0.5]];portConstraint=eastwest;whiteSpace=wrap;html=1;" parent="rGXJMdR33EM9oFi3KllI-14" vertex="1">
          <mxGeometry y="26" width="160" height="26" as="geometry" />
        </mxCell>
        <mxCell id="rGXJMdR33EM9oFi3KllI-16" value="" style="line;strokeWidth=1;fillColor=none;align=left;verticalAlign=middle;spacingTop=-1;spacingLeft=3;spacingRight=3;rotatable=0;labelPosition=right;points=[];portConstraint=eastwest;strokeColor=inherit;" parent="rGXJMdR33EM9oFi3KllI-14" vertex="1">
          <mxGeometry y="52" width="160" height="8" as="geometry" />
        </mxCell>
        <mxCell id="rGXJMdR33EM9oFi3KllI-17" value="+ method(type): type" style="text;strokeColor=none;fillColor=none;align=left;verticalAlign=top;spacingLeft=4;spacingRight=4;overflow=hidden;rotatable=0;points=[[0,0.5],[1,0.5]];portConstraint=eastwest;whiteSpace=wrap;html=1;" parent="rGXJMdR33EM9oFi3KllI-14" vertex="1">
          <mxGeometry y="60" width="160" height="26" as="geometry" />
        </mxCell>
        <mxCell id="rGXJMdR33EM9oFi3KllI-18" value="&lt;div&gt;&lt;font style=&quot;vertical-align: inherit;&quot;&gt;&lt;font style=&quot;vertical-align: inherit;&quot;&gt;Turn&lt;/font&gt;&lt;/font&gt;&lt;/div&gt;" style="swimlane;fontStyle=1;align=center;verticalAlign=top;childLayout=stackLayout;horizontal=1;startSize=26;horizontalStack=0;resizeParent=1;resizeParentMax=0;resizeLast=0;collapsible=1;marginBottom=0;whiteSpace=wrap;html=1;" parent="1" vertex="1">
          <mxGeometry x="70" y="-650" width="160" height="124" as="geometry" />
        </mxCell>
        <mxCell id="rGXJMdR33EM9oFi3KllI-19" value="+ CurrentPlayer&lt;div&gt;+Player1Pokemon&lt;/div&gt;&lt;div&gt;+Player2Pokemon&lt;/div&gt;" style="text;strokeColor=none;fillColor=none;align=left;verticalAlign=top;spacingLeft=4;spacingRight=4;overflow=hidden;rotatable=0;points=[[0,0.5],[1,0.5]];portConstraint=eastwest;whiteSpace=wrap;html=1;" parent="rGXJMdR33EM9oFi3KllI-18" vertex="1">
          <mxGeometry y="26" width="160" height="64" as="geometry" />
        </mxCell>
        <mxCell id="rGXJMdR33EM9oFi3KllI-20" value="" style="line;strokeWidth=1;fillColor=none;align=left;verticalAlign=middle;spacingTop=-1;spacingLeft=3;spacingRight=3;rotatable=0;labelPosition=right;points=[];portConstraint=eastwest;strokeColor=inherit;" parent="rGXJMdR33EM9oFi3KllI-18" vertex="1">
          <mxGeometry y="90" width="160" height="8" as="geometry" />
        </mxCell>
        <mxCell id="rGXJMdR33EM9oFi3KllI-21" value="+ method(type): type" style="text;strokeColor=none;fillColor=none;align=left;verticalAlign=top;spacingLeft=4;spacingRight=4;overflow=hidden;rotatable=0;points=[[0,0.5],[1,0.5]];portConstraint=eastwest;whiteSpace=wrap;html=1;" parent="rGXJMdR33EM9oFi3KllI-18" vertex="1">
          <mxGeometry y="98" width="160" height="26" as="geometry" />
        </mxCell>
        <mxCell id="rGXJMdR33EM9oFi3KllI-26" style="edgeStyle=orthogonalEdgeStyle;rounded=0;orthogonalLoop=1;jettySize=auto;html=1;" parent="1" source="pl-9-NFehJo8dU9QtRn4-4" target="rGXJMdR33EM9oFi3KllI-14" edge="1">
          <mxGeometry relative="1" as="geometry" />
        </mxCell>
        <mxCell id="rGXJMdR33EM9oFi3KllI-27" value="1..4" style="edgeLabel;html=1;align=center;verticalAlign=middle;resizable=0;points=[];" parent="rGXJMdR33EM9oFi3KllI-26" vertex="1" connectable="0">
          <mxGeometry x="0.8652" y="3" relative="1" as="geometry">
            <mxPoint as="offset" />
          </mxGeometry>
        </mxCell>
        <mxCell id="rGXJMdR33EM9oFi3KllI-33" value="&lt;p style=&quot;margin:0px;margin-top:4px;text-align:center;&quot;&gt;&lt;b&gt;PokemonType&lt;/b&gt;&lt;/p&gt;&lt;hr size=&quot;1&quot; style=&quot;border-style:solid;&quot;&gt;&lt;p style=&quot;margin:0px;margin-left:4px;&quot;&gt;+ field: Type&lt;/p&gt;&lt;hr size=&quot;1&quot; style=&quot;border-style:solid;&quot;&gt;&lt;p style=&quot;margin:0px;margin-left:4px;&quot;&gt;+ method(): Type&lt;/p&gt;" style="verticalAlign=top;align=left;overflow=fill;html=1;whiteSpace=wrap;" parent="1" vertex="1">
          <mxGeometry x="480" y="-1010" width="160" height="90" as="geometry" />
        </mxCell>
        <mxCell id="sCWM8UpPIPFwUfGazDlC-1" value="Game" style="swimlane;fontStyle=1;align=center;verticalAlign=top;childLayout=stackLayout;horizontal=1;startSize=26;horizontalStack=0;resizeParent=1;resizeParentMax=0;resizeLast=0;collapsible=1;marginBottom=0;whiteSpace=wrap;html=1;" parent="1" vertex="1">
          <mxGeometry x="-180" y="-650" width="160" height="86" as="geometry" />
        </mxCell>
        <mxCell id="sCWM8UpPIPFwUfGazDlC-2" value="+ field: type" style="text;strokeColor=none;fillColor=none;align=left;verticalAlign=top;spacingLeft=4;spacingRight=4;overflow=hidden;rotatable=0;points=[[0,0.5],[1,0.5]];portConstraint=eastwest;whiteSpace=wrap;html=1;" parent="sCWM8UpPIPFwUfGazDlC-1" vertex="1">
          <mxGeometry y="26" width="160" height="26" as="geometry" />
        </mxCell>
        <mxCell id="sCWM8UpPIPFwUfGazDlC-3" value="" style="line;strokeWidth=1;fillColor=none;align=left;verticalAlign=middle;spacingTop=-1;spacingLeft=3;spacingRight=3;rotatable=0;labelPosition=right;points=[];portConstraint=eastwest;strokeColor=inherit;" parent="sCWM8UpPIPFwUfGazDlC-1" vertex="1">
          <mxGeometry y="52" width="160" height="8" as="geometry" />
        </mxCell>
        <mxCell id="sCWM8UpPIPFwUfGazDlC-4" value="+ method(type): type" style="text;strokeColor=none;fillColor=none;align=left;verticalAlign=top;spacingLeft=4;spacingRight=4;overflow=hidden;rotatable=0;points=[[0,0.5],[1,0.5]];portConstraint=eastwest;whiteSpace=wrap;html=1;" parent="sCWM8UpPIPFwUfGazDlC-1" vertex="1">
          <mxGeometry y="60" width="160" height="26" as="geometry" />
        </mxCell>
        <mxCell id="sCWM8UpPIPFwUfGazDlC-8" style="edgeStyle=orthogonalEdgeStyle;rounded=0;orthogonalLoop=1;jettySize=auto;html=1;entryX=1;entryY=0.175;entryDx=0;entryDy=0;entryPerimeter=0;" parent="1" source="pl-9-NFehJo8dU9QtRn4-5" target="rGXJMdR33EM9oFi3KllI-1" edge="1">
          <mxGeometry relative="1" as="geometry">
            <Array as="points">
              <mxPoint x="340" y="-560" />
              <mxPoint x="340" y="-1000" />
            </Array>
          </mxGeometry>
        </mxCell>
        <mxCell id="rGXJMdR33EM9oFi3KllI-44" value="PokemonCatalogBuilder" style="swimlane;fontStyle=1;align=center;verticalAlign=top;childLayout=stackLayout;horizontal=1;startSize=30;horizontalStack=0;resizeParent=1;resizeParentMax=0;resizeLast=0;collapsible=1;marginBottom=0;whiteSpace=wrap;html=1;" parent="1" vertex="1">
          <mxGeometry x="-130" y="-800" width="160" height="90" as="geometry" />
        </mxCell>
        <mxCell id="rGXJMdR33EM9oFi3KllI-45" value="+ field: type" style="text;strokeColor=none;fillColor=none;align=left;verticalAlign=top;spacingLeft=4;spacingRight=4;overflow=hidden;rotatable=0;points=[[0,0.5],[1,0.5]];portConstraint=eastwest;whiteSpace=wrap;html=1;" parent="rGXJMdR33EM9oFi3KllI-44" vertex="1">
          <mxGeometry y="30" width="160" height="26" as="geometry" />
        </mxCell>
        <mxCell id="rGXJMdR33EM9oFi3KllI-46" value="" style="line;strokeWidth=1;fillColor=none;align=left;verticalAlign=middle;spacingTop=-1;spacingLeft=3;spacingRight=3;rotatable=0;labelPosition=right;points=[];portConstraint=eastwest;strokeColor=inherit;" parent="rGXJMdR33EM9oFi3KllI-44" vertex="1">
          <mxGeometry y="56" width="160" height="8" as="geometry" />
        </mxCell>
        <mxCell id="rGXJMdR33EM9oFi3KllI-47" value="+ method(type): type" style="text;strokeColor=none;fillColor=none;align=left;verticalAlign=top;spacingLeft=4;spacingRight=4;overflow=hidden;rotatable=0;points=[[0,0.5],[1,0.5]];portConstraint=eastwest;whiteSpace=wrap;html=1;" parent="rGXJMdR33EM9oFi3KllI-44" vertex="1">
          <mxGeometry y="64" width="160" height="26" as="geometry" />
        </mxCell>
        <mxCell id="rGXJMdR33EM9oFi3KllI-51" style="edgeStyle=orthogonalEdgeStyle;rounded=0;orthogonalLoop=1;jettySize=auto;html=1;exitX=0;exitY=0.5;exitDx=0;exitDy=0;entryX=0;entryY=0.5;entryDx=0;entryDy=0;" parent="1" source="sCWM8UpPIPFwUfGazDlC-2" target="pl-9-NFehJo8dU9QtRn4-4" edge="1">
          <mxGeometry relative="1" as="geometry" />
        </mxCell>
        <mxCell id="2dS7rATi0aQIj3F2_rQR-1" value="Facade" style="swimlane;fontStyle=1;align=center;verticalAlign=top;childLayout=stackLayout;horizontal=1;startSize=30;horizontalStack=0;resizeParent=1;resizeParentMax=0;resizeLast=0;collapsible=1;marginBottom=0;whiteSpace=wrap;html=1;" parent="1" vertex="1">
          <mxGeometry x="-220" y="-1320" width="270" height="160" as="geometry" />
        </mxCell>
        <mxCell id="2dS7rATi0aQIj3F2_rQR-2" value="+&amp;nbsp;&amp;nbsp;" style="text;strokeColor=none;fillColor=none;align=left;verticalAlign=top;spacingLeft=4;spacingRight=4;overflow=hidden;rotatable=0;points=[[0,0.5],[1,0.5]];portConstraint=eastwest;whiteSpace=wrap;html=1;" parent="2dS7rATi0aQIj3F2_rQR-1" vertex="1">
          <mxGeometry y="30" width="270" height="26" as="geometry" />
        </mxCell>
        <mxCell id="2dS7rATi0aQIj3F2_rQR-3" value="" style="line;strokeWidth=1;fillColor=none;align=left;verticalAlign=middle;spacingTop=-1;spacingLeft=3;spacingRight=3;rotatable=0;labelPosition=right;points=[];portConstraint=eastwest;strokeColor=inherit;" parent="2dS7rATi0aQIj3F2_rQR-1" vertex="1">
          <mxGeometry y="56" width="270" height="8" as="geometry" />
        </mxCell>
        <mxCell id="2dS7rATi0aQIj3F2_rQR-4" value="+&amp;nbsp;ChoosePokemons(int , string[] ):&amp;nbsp;List&amp;lt;string&amp;gt;&lt;br&gt;+&amp;nbsp;ShowMoves(int ):&amp;nbsp;List&amp;lt;string&amp;gt;&lt;br&gt;+&amp;nbsp;ChoosePokemonAndMoveToAttack(int, string, string)&lt;br&gt;+&amp;nbsp;GetPokemonsHealth(int):&amp;nbsp;List&amp;lt;string&amp;gt;&lt;br&gt;" style="text;strokeColor=none;fillColor=none;align=left;verticalAlign=top;spacingLeft=4;spacingRight=4;overflow=hidden;rotatable=0;points=[[0,0.5],[1,0.5]];portConstraint=eastwest;whiteSpace=wrap;html=1;" parent="2dS7rATi0aQIj3F2_rQR-1" vertex="1">
          <mxGeometry y="64" width="270" height="96" as="geometry" />
        </mxCell>
        <mxCell id="2" style="edgeStyle=orthogonalEdgeStyle;rounded=0;orthogonalLoop=1;jettySize=auto;html=1;exitX=1;exitY=0.5;exitDx=0;exitDy=0;" parent="1" source="pl-9-NFehJo8dU9QtRn4-10" target="pl-9-NFehJo8dU9QtRn4-2" edge="1">
          <mxGeometry relative="1" as="geometry" />
        </mxCell>
        <mxCell id="15" style="edgeStyle=orthogonalEdgeStyle;rounded=0;orthogonalLoop=1;jettySize=auto;html=1;exitX=0.25;exitY=0;exitDx=0;exitDy=0;entryX=0.188;entryY=1;entryDx=0;entryDy=0;entryPerimeter=0;" edge="1" parent="1" source="rGXJMdR33EM9oFi3KllI-44" target="pl-9-NFehJo8dU9QtRn4-4">
          <mxGeometry relative="1" as="geometry" />
        </mxCell>
        <mxCell id="16" style="edgeStyle=orthogonalEdgeStyle;rounded=0;orthogonalLoop=1;jettySize=auto;html=1;exitX=1;exitY=0.5;exitDx=0;exitDy=0;" edge="1" parent="1" source="sCWM8UpPIPFwUfGazDlC-2" target="rGXJMdR33EM9oFi3KllI-19">
          <mxGeometry relative="1" as="geometry" />
        </mxCell>
        <mxCell id="19" style="edgeStyle=orthogonalEdgeStyle;rounded=0;orthogonalLoop=1;jettySize=auto;html=1;entryX=0;entryY=0.5;entryDx=0;entryDy=0;" edge="1" parent="1" source="2dS7rATi0aQIj3F2_rQR-4" target="sCWM8UpPIPFwUfGazDlC-2">
          <mxGeometry relative="1" as="geometry" />
        </mxCell>
      </root>
    </mxGraphModel>
  </diagram>
</mxfile>
